<svg xmlns="http://www.w3.org/2000/svg" width="191" height="40" viewBox="0 0 141 31" role="img"><g fill="#000000" fill-rule="evenodd"><path d="M110.7 6.83l-5.2 6.64h-.65l2.74-6.64M7.78 23.4c-1.82 0-3.42-.44-4.6-1.04L2.02 23.4h-.54l-.36-6.68.64-.06C3.64 21 5.87 22.4 7.96 22.4c2.17 0 3.44-1.43 3.44-3.33 0-1.8-.7-2.68-3.53-3.85-.97-.4-2.1-.8-3.02-1.24-2.12-1.05-3.24-2.7-3.24-4.9 0-3.6 3.13-5.77 6.18-5.77 1.5 0 2.53.43 3.53 1l1.2-1.02h.5l.5 5.9-.6.1c-1.65-3.32-3.43-4.94-5.4-4.94-1.72 0-2.87 1.14-2.87 2.92 0 1.42.6 2.5 2.75 3.44 1.06.48 2.3.9 3.42 1.44 2.44 1.18 3.6 2.7 3.6 4.94 0 3.98-3.36 6.33-6.62 6.33M23.63 23.44c-4.6 0-6.85-3.28-6.85-7.3 0-3.7 2.6-7.25 7.24-7.25 4.6 0 6.8 3.24 6.8 7.22 0 3.74-2.54 7.32-7.2 7.32m.13-13.7c-2.1 0-3.4 2.34-3.4 6.47 0 4.08 1.38 6.4 3.52 6.4 2.2 0 3.4-2.35 3.4-6.48 0-4.07-1.28-6.4-3.52-6.4M37.37 23.32c-2.38 0-3.14-1.17-3.14-3.34v-9H32v-.44l2.77-2.2 2.2-2.86h.46V9.4h4.6v1.57h-4.6v7.8c0 1.2.18 1.93.8 2.35.5.36 1.2.48 2.2.48.48 0 1.08-.03 1.65-.06l.03.43c-1.17.72-3.1 1.35-4.73 1.35M51.47 11.18c-1.14 0-2.02.2-3.14.75v9.98l1.7.64v.42H43.2v-.42l1.9-.63V3.7l-2.08-1.35v-.3l5.2-1.42.1.1v10.54l.13.06c1.8-1.7 3.42-2.44 5.05-2.44 2.72 0 3.86 2.04 3.86 4.18v8.83l1.9.64v.42h-6.82v-.42l1.7-.63v-7.6c0-1.95-.8-3.12-2.67-3.12M63.74 15.13c0 3.82 1.08 6.32 4.5 6.32 1.5 0 2.75-.3 4.56-.96l.18.35c-1.84 1.6-3.9 2.6-5.83 2.6-4.14 0-6.86-2.84-6.86-7.03 0-4.3 3.26-7.53 6.94-7.53 4 0 5.92 2.67 5.9 6.23h-9.4zm6-1.03c-.1-2.83-.93-4.37-2.7-4.37-1.76 0-3.12 1.84-3.27 4.64l5.98-.27zM81.16 23.44c-1.57 0-3.65-.36-5.1-.78V3.7l-2.1-1.35v-.3l5.2-1.42.13.1v10.1l.1.05c1.07-1.06 2.52-2 4.4-2 2.86 0 5.46 2.63 5.46 6.94 0 4.3-3.27 7.62-8.1 7.62M81.68 11c-.9 0-1.67.18-2.4.48v9.55c.95.97 2.15 1.4 3.3 1.4 1.78 0 3.26-1.6 3.26-5.86 0-3.73-1.6-5.57-4.16-5.57M97.53 23.9c-1.5 3.7-2.93 5.33-4.8 5.33-1.6 0-2.36-.94-2.36-1.9 0-.93.85-1.72 1.82-1.72 1 0 1.62.56 2.34 1.46.57-.63 1.27-1.72 1.66-2.56l.52-1.15-5.35-12.87-1.84-.72v-.4h7.37v.4l-1.94.72 3.27 8.83h.15l2.96-8.6-1.76-.94v-.4h5.2v.4l-1.96 1-5.3 13.13M114.83 23.43c-1.68 0-3.1-.27-4.52-.8l-.02-3.98.6-.06c1.66 2.85 2.9 3.93 4.53 3.93 1.45 0 2.33-.9 2.33-2.3 0-1.55-1.62-2.15-3.36-2.84-1.92-.82-3.97-1.73-3.97-4.22 0-2.38 2.14-4.27 5.25-4.27 1.2 0 2.88.25 3.7.55l.1 3.58-.6.15c-1.48-2.44-2.46-3.37-3.87-3.37-1.28 0-2.07.85-2.07 1.94 0 1.56 1.66 2.2 3.4 2.88 1.92.8 4 1.7 4 4.24 0 2.8-2.5 4.57-5.47 4.57M128.86 18.9l.05.1-.77.63c-.36.28-.52.43-.52.96v.86h2.12v-.35c0-.45-.17-.63-.7-.8l-.26-.08v-.14h2.2v.14l-.26.08c-.52.17-.7.35-.7.8v.36h2.13l-.02-1.18c0-.46-.15-.64-.46-.88l-.87-.67.04-.12 1.6.2v4.4h-.12l-.17-.75h-4.48l-.17.74h-.13v-4.15l1.54-.15M132.53 16.16c0 .48-.12.9-.28 1.2l.28.32v.14l-1.77.1-.02-.17c1.15-.5 1.52-1.1 1.52-1.64 0-.56-.37-.9-.88-.9-.48 0-.7.2-1.02.94-.1.25-.2.55-.33.8-.28.55-.72.84-1.3.84-.96 0-1.53-.82-1.53-1.62 0-.4.1-.67.26-.93l-.27-.3v-.14l1.56-.15.02.16c-.88.45-1.3.92-1.3 1.43 0 .46.3.76.77.76.37 0 .66-.17.9-.73.14-.28.25-.6.4-.9.3-.65.7-.95 1.3-.95 1.06 0 1.68.88 1.68 1.74M128.97 9.06l-.8.6c-.44.35-.56.52-.58.92v.3h4.5l.18-.76h.13v2.55h-.12l-.17-.77h-4.5v.35c0 .4.13.57.57.92l.8.6-.04.13-1.6-.25V9.18l1.6-.26.04.14M132.54 8.63c0 .3-.24.52-.53.52-.27 0-.5-.23-.5-.52 0-.3.23-.52.5-.52.3 0 .54.24.54.53M139.92 20.56h.13v2.6h-.13l-.3-.87h-3.8l-.38.85h-.1l-.26-1.7.03-.03h4.5M135.96 19.53l.47.4-.02.08-1.45-.2-.03-.08.23-.17V16.7l.07-.04 4.95 2.27v.82l-1.95-1.16-2.26-1.27M136.34 14.68l1.68 1.37v-1.37h-1.68zm2.3-.88h.97l.32-.82h.13v2.54h-.13l-.3-.84h-.98v2l-.14.06-3.47-2.82.05-.12h2.94v-.86h.62v.86zM136.34 10.4l1.68 1.36V10.4h-1.68zm2.3-.9h.97l.32-.8h.13v2.53h-.13l-.3-.84h-.98v2l-.14.05-3.47-2.82.05-.12h2.94v-.85h.62v.86z"></path></g></svg>