<svg width="18" height="18" viewBox="0 0 18 18" fill="none" xmlns="http://www.w3.org/2000/svg">
<path d="M15.0312 2.52393L9.82617 6.3898L10.7887 4.10899L15.0312 2.52393Z" fill="#E2761B" stroke="#E2761B" stroke-linecap="round" stroke-linejoin="round"/>
<path d="M3.01562 2.52393L8.17884 6.42642L7.26338 4.10899L3.01562 2.52393Z" fill="#E4761B" stroke="#E4761B" stroke-linecap="round" stroke-linejoin="round"/>
<path d="M13.1597 11.4851L11.7734 13.609L14.7395 14.4251L15.5922 11.5322L13.1597 11.4851Z" fill="#E4761B" stroke="#E4761B" stroke-linecap="round" stroke-linejoin="round"/>
<path d="M2.4668 11.5322L3.31425 14.4251L6.28036 13.609L4.89408 11.4851L2.4668 11.5322Z" fill="#E4761B" stroke="#E4761B" stroke-linecap="round" stroke-linejoin="round"/>
<path d="M6.11364 7.89639L5.28711 9.14666L8.23229 9.27744L8.12766 6.11255L6.11364 7.89639Z" fill="#E4761B" stroke="#E4761B" stroke-linecap="round" stroke-linejoin="round"/>
<path d="M11.9344 7.89639L9.89418 6.07593L9.82617 9.27744L12.7661 9.14665L11.9344 7.89639Z" fill="#E4761B" stroke="#E4761B" stroke-linecap="round" stroke-linejoin="round"/>
<path d="M6.28125 13.6088L8.0494 12.7457L6.52189 11.553L6.28125 13.6088Z" fill="#E4761B" stroke="#E4761B" stroke-linecap="round" stroke-linejoin="round"/>
<path d="M10 12.7457L11.7734 13.6088L11.5275 11.553L10 12.7457Z" fill="#E4761B" stroke="#E4761B" stroke-linecap="round" stroke-linejoin="round"/>
<path d="M11.7734 13.6088L10 12.7456L10.1412 13.9017L10.1255 14.3882L11.7734 13.6088Z" fill="#D7C1B3" stroke="#D7C1B3" stroke-linecap="round" stroke-linejoin="round"/>
<path d="M6.28125 13.6088L7.92908 14.3882L7.91862 13.9017L8.0494 12.7456L6.28125 13.6088Z" fill="#D7C1B3" stroke="#D7C1B3" stroke-linecap="round" stroke-linejoin="round"/>
<path d="M7.95372 10.7891L6.47852 10.3549L7.51953 9.87891L7.95372 10.7891Z" fill="#233447" stroke="#233447" stroke-linecap="round" stroke-linejoin="round"/>
<path d="M10.0938 10.7891L10.5279 9.87891L11.5742 10.3549L10.0938 10.7891Z" fill="#233447" stroke="#233447" stroke-linecap="round" stroke-linejoin="round"/>
<path d="M6.2808 13.6087L6.5319 11.4849L4.89453 11.5319L6.2808 13.6087Z" fill="#CD6116" stroke="#CD6116" stroke-linecap="round" stroke-linejoin="round"/>
<path d="M11.5234 11.4849L11.7745 13.6087L13.1608 11.5319L11.5234 11.4849Z" fill="#CD6116" stroke="#CD6116" stroke-linecap="round" stroke-linejoin="round"/>
<path d="M12.7681 9.14648L9.82812 9.27726L10.1001 10.7891L10.5343 9.87886L11.5806 10.3549L12.7681 9.14648Z" fill="#CD6116" stroke="#CD6116" stroke-linecap="round" stroke-linejoin="round"/>
<path d="M6.47983 10.3549L7.52607 9.87886L7.95503 10.7891L8.23229 9.27726L5.28711 9.14648L6.47983 10.3549Z" fill="#CD6116" stroke="#CD6116" stroke-linecap="round" stroke-linejoin="round"/>
<path d="M5.28711 9.14648L6.52168 11.5528L6.47983 10.3549L5.28711 9.14648Z" fill="#E4751F" stroke="#E4751F" stroke-linecap="round" stroke-linejoin="round"/>
<path d="M11.5797 10.3549L11.5273 11.5528L12.7671 9.14648L11.5797 10.3549Z" fill="#E4751F" stroke="#E4751F" stroke-linecap="round" stroke-linejoin="round"/>
<path d="M8.23233 9.27734L7.95508 10.7892L8.30034 12.573L8.37881 10.2242L8.23233 9.27734Z" fill="#E4751F" stroke="#E4751F" stroke-linecap="round" stroke-linejoin="round"/>
<path d="M9.82874 9.27734L9.6875 10.219L9.75028 12.573L10.1008 10.7892L9.82874 9.27734Z" fill="#E4751F" stroke="#E4751F" stroke-linecap="round" stroke-linejoin="round"/>
<path d="M10.0985 10.7892L9.74805 12.573L9.99914 12.7456L11.5267 11.5529L11.579 10.355L10.0985 10.7892Z" fill="#F6851B" stroke="#F6851B" stroke-linecap="round" stroke-linejoin="round"/>
<path d="M6.47852 10.355L6.52037 11.5529L8.04788 12.7456L8.29898 12.573L7.95372 10.7892L6.47852 10.355Z" fill="#F6851B" stroke="#F6851B" stroke-linecap="round" stroke-linejoin="round"/>
<path d="M10.1262 14.3883L10.1419 13.9018L10.0111 13.7867H8.03894L7.91862 13.9018L7.92908 14.3883L6.28125 13.6089L6.85668 14.0797L8.02325 14.8905H10.0268L11.1986 14.0797L11.774 13.6089L10.1262 14.3883Z" fill="#C0AD9E" stroke="#C0AD9E" stroke-linecap="round" stroke-linejoin="round"/>
<path d="M9.99999 12.7456L9.7489 12.573H8.29985L8.04875 12.7456L7.91797 13.9017L8.03829 13.7866H10.0105L10.1412 13.9017L9.99999 12.7456Z" fill="#161616" stroke="#161616" stroke-linecap="round" stroke-linejoin="round"/>
<path d="M15.2521 6.6409L15.6968 4.50656L15.0324 2.52393L10 6.25902L11.9356 7.89639L14.6715 8.69677L15.2783 7.99055L15.0167 7.80223L15.4352 7.42035L15.1109 7.16925L15.5294 6.85014L15.2521 6.6409Z" fill="#763D16" stroke="#763D16" stroke-linecap="round" stroke-linejoin="round"/>
<path d="M2.35742 4.50656L2.80208 6.6409L2.51959 6.85014L2.93809 7.16925L2.61898 7.42035L3.03748 7.80223L2.77592 7.99055L3.37751 8.69677L6.11344 7.89639L8.04899 6.25902L3.01656 2.52393L2.35742 4.50656Z" fill="#763D16" stroke="#763D16" stroke-linecap="round" stroke-linejoin="round"/>
<path d="M14.6713 8.69662L11.9354 7.89624L12.7671 9.1465L11.5273 11.5529L13.1595 11.5319H15.592L14.6713 8.69662Z" fill="#F6851B" stroke="#F6851B" stroke-linecap="round" stroke-linejoin="round"/>
<path d="M6.11296 7.89624L3.37703 8.69662L2.4668 11.5319H4.89408L6.52099 11.5529L5.28642 9.1465L6.11296 7.89624Z" fill="#F6851B" stroke="#F6851B" stroke-linecap="round" stroke-linejoin="round"/>
<path d="M9.82697 9.27733L9.9996 6.25892L10.7947 4.10889H7.26367L8.04836 6.25892L8.23145 9.27733L8.29422 10.2294L8.29945 12.573H9.7485L9.75896 10.2294L9.82697 9.27733Z" fill="#F6851B" stroke="#F6851B" stroke-linecap="round" stroke-linejoin="round"/>
</svg>
