<svg width="48" height="24" viewBox="0 0 48 24" fill="none" xmlns="http://www.w3.org/2000/svg">
<rect x="0.5" y="0.5" width="47" height="23" rx="1.5" fill="white"/>
<path d="M12.0731 9.99484C10.6199 9.99484 9.48455 11.0979 9.48455 12.5746C9.48455 14.0513 10.5913 15.145 12.0731 15.145C13.5548 15.145 14.6808 14.0325 14.6808 12.5652C14.6808 11.1074 13.5741 9.99484 12.0731 9.99484ZM12.0829 14.0808C11.2554 14.0808 10.649 13.4381 10.649 12.575C10.649 11.7021 11.2456 11.0598 12.0731 11.0598C12.9104 11.0598 13.5164 11.7119 13.5164 12.575C13.5164 13.4381 12.9104 14.0808 12.0829 14.0808ZM14.9981 11.1172H15.72V15.0495H16.8746V10.0907H14.9981V11.1172ZM6.5787 11.0594C7.18507 11.0594 7.66617 11.4334 7.84881 11.9897H9.07099C8.8495 10.8006 7.86805 9.99484 6.5885 9.99484C5.1354 9.99484 4 11.0979 4 12.575C4 14.0521 5.10671 15.1453 6.5885 15.1453C7.83937 15.1453 8.84006 14.3396 9.06154 13.1407H7.84881C7.67561 13.697 7.19451 14.0808 6.58814 14.0808C5.75084 14.0808 5.16408 13.4381 5.16408 12.575C5.16445 11.7021 5.74177 11.0594 6.5787 11.0594ZM36.9371 12.0953L36.0903 11.9708C35.6862 11.9134 35.3976 11.7791 35.3976 11.4625C35.3976 11.1172 35.773 10.9447 36.2828 10.9447C36.8409 10.9447 37.1971 11.1843 37.274 11.5776H38.3902C38.2649 10.5802 37.4952 9.99521 36.3118 9.99521C35.0896 9.99521 34.2814 10.6186 34.2814 11.501C34.2814 12.3448 34.8108 12.8342 35.8787 12.9875L36.7254 13.112C37.1393 13.1694 37.3702 13.3328 37.3702 13.6396C37.3702 14.0328 36.9661 14.1959 36.408 14.1959C35.7247 14.1959 35.3398 13.9177 35.2821 13.4958H34.1467C34.2527 14.4645 35.0127 15.1453 36.3982 15.1453C37.6589 15.1453 38.4958 14.5698 38.4958 13.5819C38.4958 12.6995 37.8898 12.2391 36.9371 12.0953ZM16.2973 8.04793C15.8739 8.04793 15.5562 8.35474 15.5562 8.77666C15.5562 9.19858 15.8736 9.50539 16.2973 9.50539C16.7207 9.50539 17.0384 9.19858 17.0384 8.77666C17.0384 8.35474 16.7207 8.04793 16.2973 8.04793ZM33.2422 11.7885C33.2422 10.7145 32.5879 9.99521 31.2024 9.99521C29.8938 9.99521 29.1625 10.6571 29.018 11.6738H30.1632C30.2209 11.2806 30.5288 10.9545 31.1831 10.9545C31.7702 10.9545 32.0589 11.2134 32.0589 11.53C32.0589 11.9425 31.5295 12.0478 30.8752 12.115C29.99 12.2108 28.8931 12.5176 28.8931 13.6686C28.8931 14.5608 29.5572 15.1359 30.6156 15.1359C31.4431 15.1359 31.9627 14.7906 32.2227 14.2438C32.2611 14.7329 32.6268 15.0495 33.1369 15.0495H33.8105V14.0234H33.2426V11.7885H33.2422ZM32.1068 13.0354C32.1068 13.6973 31.5295 14.1864 30.8269 14.1864C30.3937 14.1864 30.0281 14.0041 30.0281 13.6207C30.0281 13.1316 30.6152 12.9973 31.1541 12.9399C31.6737 12.892 31.9623 12.7769 32.1068 12.5561V13.0354ZM25.9774 9.99484C25.3326 9.99484 24.7937 10.2635 24.4088 10.7141V8H23.2542V15.0495H24.3896V14.3974C24.7745 14.8672 25.3231 15.1453 25.9774 15.1453C27.363 15.1453 28.412 14.0521 28.412 12.575C28.412 11.0979 27.3437 9.99484 25.9774 9.99484ZM25.8042 14.0808C24.9767 14.0808 24.3704 13.4381 24.3704 12.575C24.3704 11.7119 24.9862 11.0598 25.8137 11.0598C26.651 11.0598 27.2377 11.7025 27.2377 12.575C27.2377 13.4381 26.6317 14.0808 25.8042 14.0808ZM20.4925 9.99484C19.742 9.99484 19.2511 10.3017 18.9624 10.7334V10.0907H17.8172V15.0491H18.9719V12.3542C18.9719 11.5965 19.453 11.0594 20.165 11.0594C20.8291 11.0594 21.2427 11.5293 21.2427 12.2104V15.0495H22.3973V12.1244C22.3977 10.8772 21.7532 9.99484 20.4925 9.99484ZM44 12.412C44 10.9926 42.9608 9.99521 41.5654 9.99521C40.0837 9.99521 38.9962 11.1077 38.9962 12.575C38.9962 14.1192 40.1606 15.1453 41.5847 15.1453C42.7876 15.1453 43.7306 14.4355 43.971 13.4286H42.768C42.5948 13.8698 42.1715 14.1192 41.6036 14.1192C40.8625 14.1192 40.3044 13.6588 40.1795 12.8531H43.9996V12.412H44ZM40.2471 12.0282C40.43 11.3376 40.9496 11.0021 41.5462 11.0021C42.2005 11.0021 42.7008 11.3761 42.8163 12.0282H40.2471Z" fill="#0052FF"/>
<rect x="0.5" y="0.5" width="47" height="23" rx="1.5" stroke="#EEEFF4"/>
</svg>
